HIERARCHY
ROOT hip
{
	OFFSET 0.000000 0.000000 0.000000 
	CHANNELS 6 Xposition Yposition Zposition Xrotation Zrotation Yrotation
	JOINT abdomen
	{
		OFFSET 0.000000 3.402643 0.000000 
		CHANNELS 3 Xrotation Zrotation Yrotation
		JOINT chest
		{
			OFFSET 0.000000 8.438565 -0.680529 
			CHANNELS 3 Xrotation Zrotation Yrotation
			JOINT neck
			{
				OFFSET 0.000000 10.207942 -0.272212 
				CHANNELS 3 Xrotation Zrotation Yrotation
				JOINT head
				{
					OFFSET 0.000000 3.130431 0.000000 
					CHANNELS 3 Xrotation Zrotation Yrotation
					End Site
					{
						OFFSET 0.000000 3.130435 0.000000 
					}
				}
			}
			JOINT lCollar
			{
				OFFSET 3.470700 6.669187 -0.816635 
				CHANNELS 3 Yrotation Zrotation Xrotation
				JOINT lShldr
				{
					OFFSET 3.198488 0.000000 0.000000 
					CHANNELS 3 Zrotation Yrotation Xrotation
					JOINT lForeArm
					{
						OFFSET 10.139888 0.000000 0.000000 
						CHANNELS 3 Yrotation Zrotation Xrotation
						JOINT lHand
						{
							OFFSET 8.370511 0.000000 0.000000 
							CHANNELS 3 Zrotation Yrotation Xrotation
							End Site
							{
								OFFSET 4.083176 0.000000 0.000000 
							}
						}
					}
				}
			}
			JOINT rCollar
			{
				OFFSET -3.470700 6.669187 -0.816635 
				CHANNELS 3 Yrotation Zrotation Xrotation
				JOINT rShldr
				{
					OFFSET -3.198488 0.000000 0.000000 
					CHANNELS 3 Zrotation Yrotation Xrotation
					JOINT rForeArm
					{
						OFFSET -10.139888 0.000000 0.000000 
						CHANNELS 3 Yrotation Zrotation Xrotation
						JOINT rHand
						{
							OFFSET -8.370511 0.000000 0.000000 
							CHANNELS 3 Zrotation Yrotation Xrotation
							End Site
							{
								OFFSET -4.083176 0.000000 0.000000 
							}
						}
					}
				}
			}
		}
	}
	JOINT lThigh
	{
		OFFSET 5.308129 -1.633274 1.361059 
		CHANNELS 3 Xrotation Zrotation Yrotation
		JOINT lShin
		{
			OFFSET -2.041588 -20.007561 0.000000 
			CHANNELS 3 Xrotation Zrotation Yrotation
			JOINT lFoot
			{
				OFFSET 0.000000 -19.190928 -1.224953 
				CHANNELS 3 Xrotation Yrotation Zrotation
				End Site
				{
					OFFSET 0.000000 -2.449906 4.627600 
				}
			}
		}
	}
	JOINT rThigh
	{
		OFFSET -5.308129 -1.633274 1.361059 
		CHANNELS 3 Xrotation Zrotation Yrotation
		JOINT rShin
		{
			OFFSET 2.041588 -20.007561 0.000000 
			CHANNELS 3 Xrotation Zrotation Yrotation
			JOINT rFoot
			{
				OFFSET 0.000000 -19.190928 -1.224953 
				CHANNELS 3 Xrotation Yrotation Zrotation
				End Site
				{
					OFFSET 0.000000 -2.449906 4.627600 
				}
			}
		}
	}
}
MOTION
Frames: 6
Frame Time: 0.033333
-2.928833 44.146217 48.592518 -17.587889 -5.126953 131.981552 15.097657 3.964844 4.844426 -16.162109 3.417969 3.984957 -6.962891 1.777344 20.810545 8.789063 -8.964844 20.603949 1.757813 -0.458984 -0.175703 -63.212887 12.333984 -5.486194 -101.748047 -3.427734 -55.604889 38.203133 -134.824219 -27.858488 9.101563 6.777344 -0.391777 62.148438 -4.736328 21.014820 59.736328 3.203125 -39.824501 9.140625 12.441406 2.365386 -47.780487 32.770172 16.356682 45.230488 -0.605658 -2.731683 -14.658740 2.025593 -4.419962 -18.299026 -6.532688 -5.802803 39.795895 0.292846 2.135048 -31.422968 -15.838986 -4.107899 
-2.938019 44.147564 48.574272 -17.783203 -5.302734 131.992188 15.097657 3.964844 4.844426 -16.347654 3.417969 3.984957 -6.787109 1.962891 20.791016 8.798828 -9.140393 20.594664 1.757813 -0.283203 -0.175733 -63.212887 12.333984 -5.486194 -101.835938 -3.457031 -55.634174 38.085953 -134.785156 -27.878023 9.101563 6.943360 -0.411337 62.080082 -4.912109 21.024551 59.648438 3.398438 -39.941986 9.140625 12.597656 2.355647 -47.925579 32.543919 16.214293 45.205032 -0.784420 -2.645688 -14.658682 1.909176 -4.493076 -18.216110 -6.315686 -5.295801 39.815971 0.585826 1.896198 -31.406689 -15.774116 -4.280195 
-2.939734 44.147442 48.544998 -17.597658 -5.302734 132.001953 15.087892 3.759766 4.951812 -16.513672 3.417969 4.150973 -6.425781 1.962891 20.801119 8.798828 -9.316171 20.594633 1.572266 -0.283203 -0.175733 -63.222656 12.695313 -5.476368 -101.884766 -3.486328 -55.468155 38.046886 -134.531250 -27.790165 9.101563 6.943360 -0.411337 61.953129 -4.912109 20.868305 59.658199 3.242188 -40.048832 9.140625 12.597656 2.355647 -47.997108 32.801620 16.497389 45.264893 -0.735664 -2.610270 -14.869341 1.825906 -4.306672 -18.247408 -6.316579 -4.945819 39.621151 0.585825 1.877104 -31.154928 -16.292547 -4.398757 
-2.940714 44.134335 48.505795 -17.783203 -5.302734 131.816406 14.912109 3.759766 4.951812 -16.347654 3.593750 4.151002 -6.601562 1.962891 20.801115 8.798828 -9.491947 20.594604 1.406250 -0.283203 -0.175733 -63.398438 12.675782 -5.466605 -101.923828 -3.535156 -55.302132 37.773460 -134.375000 -27.594873 9.101563 6.943360 -0.411337 61.894531 -4.921875 20.780413 59.619144 3.447266 -40.195900 9.140625 12.763672 2.355673 -47.923542 32.541470 16.367081 45.420616 -0.801263 -2.634587 -15.041364 2.300842 -4.490724 -18.170681 -6.141591 -4.415982 39.795792 0.312525 2.141754 -31.226639 -16.632267 -4.700723 
-2.928710 44.103100 48.457901 -17.597658 -5.302734 131.816406 14.912109 3.593750 4.893190 -15.986327 3.593750 4.160768 -7.138672 2.109375 20.605829 8.798828 -9.491947 20.594604 1.572266 -0.283203 -0.175733 -63.525391 12.470704 -5.368984 -102.011719 -3.427734 -54.940823 37.656254 -134.335922 -27.741360 8.916016 6.953125 -0.380859 61.630859 -4.912109 20.741352 59.736328 3.183594 -40.254452 9.140625 12.597656 2.355647 -47.997124 32.801613 16.497391 45.597187 -0.725815 -2.613728 -15.029647 1.955961 -4.478132 -18.446472 -5.996106 -4.084193 39.805149 0.319996 2.154462 -31.378534 -17.248913 -4.972248 
-2.914501 44.051163 48.401306 -17.597658 -5.302734 132.001953 14.912109 3.593750 4.893190 -15.644529 3.759766 4.160797 -7.314453 1.933594 20.625330 8.964844 -9.677734 20.605471 1.572266 -0.283203 -0.175733 -63.554684 12.294922 -5.456903 -102.089844 -3.408203 -55.146484 37.656254 -134.531250 -27.594854 8.759767 6.962891 -0.382043 61.425785 -4.707031 20.692560 59.833988 3.261719 -40.420475 9.140625 12.441406 2.365386 -48.287777 32.720734 16.371735 46.094196 -0.794302 -3.190269 -15.176827 2.368622 -4.442338 -18.266136 -6.179818 -3.556448 40.143791 0.644487 2.281533 -31.525620 -17.587986 -5.456157 
